<svg width="62" height="46" viewBox="0 0 62 46" fill="none" xmlns="http://www.w3.org/2000/svg">
<path d="M0.0791016 30.2414C0.0791016 38.5663 6.19535 45.532 13.331 45.532C20.2967 45.532 25.5635 40.2653 25.5635 33.4694C25.5635 26.1639 19.1074 21.237 10.6126 20.7273C12.8213 15.2906 16.559 9.51416 23.8645 2.20864L21.6559 0C7.55451 7.9851 0.0791016 20.0477 0.0791016 30.2414ZM36.4368 30.2414C36.4368 38.5663 42.553 45.532 49.6886 45.532C56.6544 45.532 61.9211 40.2653 61.9211 33.4694C61.9211 26.1639 55.4651 21.237 46.9703 20.7273C49.179 15.2906 52.9167 9.51416 60.2222 2.20864L58.0135 0C43.9122 7.9851 36.4368 20.0477 36.4368 30.2414Z" fill="#2D2D2D"/>
</svg>
